<?xml version="1.0" encoding="utf-8"?>
<!-- Generator: Adobe Illustrator 25.4.1, SVG Export Plug-In . SVG Version: 6.00 Build 0)  -->
<svg version="1.1" id="Layer_1" xmlns="http://www.w3.org/2000/svg" xmlns:xlink="http://www.w3.org/1999/xlink" x="0px" y="0px"
	 viewBox="0 0 1080 1080" style="enable-background:new 0 0 1080 1080;" xml:space="preserve">
<style type="text/css">
	.st0{fill:white;}
	.st1{fill:#93C23F;}
	.st2{fill:#5BA654;}
</style>
<g>
	<g>
		<g>
			<path class="st0" d="M250.62,508.56v20.86h33.64v19.39h-33.64v22.62h38.05v20.12H225.5V488.44h63.16v20.12H250.62z"/>
			<path class="st0" d="M341.84,568.06l17.77-58.46h26.73l-29.09,81.97h-30.99l-29.09-81.97h26.88L341.84,568.06z"/>
			<path class="st0" d="M473.75,556.6H416.9c0.39,5.09,2.03,8.99,4.92,11.68c2.89,2.69,6.44,4.04,10.65,4.04
				c6.27,0,10.62-2.64,13.07-7.93h26.73c-1.37,5.39-3.84,10.23-7.42,14.54c-3.58,4.31-8.06,7.69-13.44,10.14
				c-5.39,2.45-11.41,3.67-18.07,3.67c-8.03,0-15.18-1.71-21.45-5.14c-6.27-3.43-11.16-8.32-14.69-14.69
				c-3.53-6.36-5.29-13.81-5.29-22.33c0-8.52,1.74-15.96,5.21-22.33c3.47-6.36,8.35-11.26,14.62-14.69
				c6.27-3.43,13.46-5.14,21.59-5.14c7.93,0,14.98,1.67,21.15,4.99c6.17,3.33,10.99,8.08,14.47,14.25
				c3.48,6.17,5.21,13.37,5.21,21.59C474.19,551.6,474.04,554.05,473.75,556.6z M448.48,542.64c0-4.31-1.47-7.74-4.41-10.28
				c-2.94-2.55-6.61-3.82-11.02-3.82c-4.21,0-7.76,1.23-10.65,3.67c-2.89,2.45-4.68,5.93-5.36,10.43H448.48z"/>
			<path class="st0" d="M523.55,512.6c4.41-2.59,9.3-3.89,14.69-3.89v26.59h-6.9c-6.27,0-10.97,1.35-14.1,4.04
				c-3.14,2.69-4.7,7.42-4.7,14.18v38.05h-25.12v-81.97h25.12v13.66C515.47,518.75,519.14,515.2,523.55,512.6z"/>
			<g>
				<g>
					<path class="st1" d="M618.74,521.05c-1.86-3.43-4.53-6.05-8.01-7.86c-3.48-1.81-7.56-2.72-12.27-2.72
						c-8.13,0-14.64,2.67-19.54,8.01c-4.9,5.34-7.34,12.46-7.34,21.37c0,9.5,2.57,16.92,7.71,22.25c5.14,5.34,12.22,8.01,21.23,8.01
						c6.17,0,11.38-1.57,15.64-4.7c4.26-3.13,7.37-7.64,9.33-13.51h-31.88v-18.51h54.65v23.36c-1.86,6.27-5.02,12.1-9.47,17.48
						c-4.46,5.39-10.11,9.75-16.97,13.07c-6.86,3.33-14.59,4.99-23.21,4.99c-10.19,0-19.27-2.23-27.25-6.68
						c-7.98-4.46-14.2-10.65-18.66-18.58c-4.46-7.93-6.68-16.99-6.68-27.18c0-10.18,2.23-19.27,6.68-27.25
						c4.45-7.98,10.65-14.2,18.58-18.66c7.93-4.45,16.99-6.68,27.18-6.68c12.34,0,22.74,2.99,31.22,8.96
						c8.47,5.97,14.08,14.25,16.82,24.83H618.74z"/>
				</g>
			</g>
			<g>
				<g>
					<path class="st1" d="M698.35,512.6c4.41-2.59,9.3-3.89,14.69-3.89v26.59h-6.9c-6.27,0-10.97,1.35-14.1,4.04
						c-3.14,2.69-4.7,7.42-4.7,14.18v38.05h-25.12v-81.97h25.12v13.66C690.27,518.75,693.94,515.2,698.35,512.6z"/>
				</g>
			</g>
			<g>
				<g>
					<path class="st1" d="M801.91,556.6h-56.85c0.39,5.09,2.03,8.99,4.92,11.68c2.89,2.69,6.44,4.04,10.65,4.04
						c6.27,0,10.62-2.64,13.07-7.93h26.73c-1.37,5.39-3.84,10.23-7.42,14.54c-3.58,4.31-8.06,7.69-13.44,10.14
						c-5.39,2.45-11.41,3.67-18.07,3.67c-8.03,0-15.18-1.71-21.45-5.14c-6.27-3.43-11.16-8.32-14.69-14.69
						c-3.53-6.36-5.29-13.81-5.29-22.33c0-8.52,1.74-15.96,5.21-22.33c3.47-6.36,8.35-11.26,14.62-14.69
						c6.27-3.43,13.46-5.14,21.59-5.14c7.93,0,14.98,1.67,21.15,4.99c6.17,3.33,10.99,8.08,14.47,14.25
						c3.48,6.17,5.21,13.37,5.21,21.59C802.35,551.6,802.21,554.05,801.91,556.6z M776.65,542.64c0-4.31-1.47-7.74-4.41-10.28
						c-2.94-2.55-6.61-3.82-11.02-3.82c-4.21,0-7.76,1.23-10.65,3.67c-2.89,2.45-4.68,5.93-5.36,10.43H776.65z"/>
				</g>
			</g>
			<g>
				<g>
					<path class="st1" d="M892.4,556.6h-56.85c0.39,5.09,2.03,8.99,4.92,11.68c2.89,2.69,6.44,4.04,10.65,4.04
						c6.27,0,10.62-2.64,13.07-7.93h26.73c-1.37,5.39-3.84,10.23-7.42,14.54c-3.58,4.31-8.06,7.69-13.44,10.14
						c-5.39,2.45-11.41,3.67-18.07,3.67c-8.03,0-15.18-1.71-21.45-5.14c-6.27-3.43-11.16-8.32-14.69-14.69
						c-3.53-6.36-5.29-13.81-5.29-22.33c0-8.52,1.74-15.96,5.21-22.33c3.47-6.36,8.35-11.26,14.62-14.69
						c6.27-3.43,13.46-5.14,21.59-5.14c7.93,0,14.98,1.67,21.15,4.99c6.17,3.33,10.99,8.08,14.47,14.25
						c3.48,6.17,5.21,13.37,5.21,21.59C892.84,551.6,892.69,554.05,892.4,556.6z M867.13,542.64c0-4.31-1.47-7.74-4.41-10.28
						c-2.94-2.55-6.61-3.82-11.02-3.82c-4.21,0-7.76,1.23-10.65,3.67c-2.89,2.45-4.68,5.93-5.36,10.43H867.13z"/>
				</g>
			</g>
			<g>
				<g>
					<path class="st1" d="M978.99,518.04c5.73,6.22,8.59,14.76,8.59,25.63v47.89h-24.97v-44.51c0-5.48-1.42-9.74-4.26-12.78
						c-2.84-3.03-6.66-4.55-11.46-4.55c-4.8,0-8.62,1.52-11.46,4.55c-2.84,3.04-4.26,7.3-4.26,12.78v44.51h-25.12v-81.97h25.12
						v10.87c2.55-3.62,5.97-6.49,10.28-8.59c4.31-2.1,9.16-3.16,14.54-3.16C965.6,508.71,973.26,511.82,978.99,518.04z"/>
				</g>
			</g>
		</g>
	</g>
	<g>
		<g>
			<g>
				<path class="st2" d="M354.59,636.05c32.37,2.85,40.91,75.77,2.13,103.16"/>
				<path class="st2" d="M354.59,636.05c-32.37,2.85-36.64,75.77,2.13,103.16"/>
			</g>
		</g>
		<g>
			<path class="st2" d="M287.77,639.63c26.02,17.68-1.18,83.35-46.88,88.2"/>
			<path class="st2" d="M287.77,639.63c-28.7-12.87-66.73,46.75-46.88,88.2"/>
		</g>
		<g>
			<path class="st2" d="M224.85,620.99c7.49,28.23-51.54,57.73-86.54,33.33"/>
			<path class="st2" d="M224.85,620.99c-12.3-26.49-75.24-7.81-86.54,33.33"/>
		</g>
		<g>
			<path class="st2" d="M180.11,573.29c-4.16,27.33-66.53,30.65-87.7-3.75"/>
			<path class="st2" d="M180.11,573.29c-0.67-27.64-62.35-35.19-87.7-3.75"/>
		</g>
		<g>
			<path class="st2" d="M160.23,511.9c-19.83,15.61-63.46-21.1-56.09-57.22"/>
			<path class="st2" d="M160.23,511.9c16.8-18.83-19.59-62.36-56.09-57.22"/>
		</g>
		<g>
			<path class="st1" d="M175.9,451.27c-23.14-0.04-33.65-51.24-7.82-73.04"/>
			<path class="st1" d="M175.9,451.27c22.79-4,21.35-55.99-7.82-73.04"/>
		</g>
		<g>
			<path class="st1" d="M221.55,400.71c-17.89-10.03-3.9-54.21,25.51-59.92"/>
			<path class="st1" d="M221.55,400.71c19.37,6.75,40.73-34.11,25.51-59.92"/>
		</g>
		<g>
			<path class="st1" d="M284.62,396.3c-10.93-15.53,18.43-46.84,45.28-39.84"/>
			<path class="st1" d="M284.62,396.3c13.47,13.39,47.66-12.19,45.28-39.84"/>
		</g>
		<g>
			<path class="st1" d="M335.38,408.6c2.95-16.79,41.44-17.96,54.01,3.54"/>
			<path class="st1" d="M335.38,408.6c0.03,17.05,37.94,22.57,54.01,3.54"/>
		</g>
		<g>
			<path class="st1" d="M362.62,462.12c6.58-13.02,38.39-4.43,43.35,16.29"/>
			<path class="st1" d="M362.62,462.12c-4.21,13.97,25.47,27.89,43.35,16.29"/>
		</g>
	</g>
</g>
</svg>
